<svg width="120" height="14" viewBox="0 0 120 14" xmlns="http://www.w3.org/2000/svg">
    <path d="M0.692 0.399999H6.2C7.544 0.399999 8.738 0.663999 9.782 1.192C10.826 1.708 11.636 2.446 12.212 3.406C12.788 4.354 13.076 5.452 13.076 6.7C13.076 7.948 12.788 9.052 12.212 10.012C11.636 10.96 10.826 11.698 9.782 12.226C8.738 12.742 7.544 13 6.2 13H0.692V0.399999ZM6.092 11.02C7.016 11.02 7.826 10.846 8.522 10.498C9.23 10.138 9.77 9.634 10.142 8.986C10.526 8.326 10.718 7.564 10.718 6.7C10.718 5.836 10.526 5.08 10.142 4.432C9.77 3.772 9.23 3.268 8.522 2.92C7.826 2.56 7.016 2.38 6.092 2.38H3.032V11.02H6.092ZM25.3731 11.038V13H15.9231V0.399999H25.1211V2.362H18.2631V5.638H24.3471V7.564H18.2631V11.038H25.3731ZM32.2477 13.18C31.2757 13.18 30.3337 13.042 29.4217 12.766C28.5217 12.49 27.8077 12.124 27.2797 11.668L28.0897 9.85C28.6057 10.258 29.2357 10.594 29.9797 10.858C30.7357 11.11 31.4917 11.236 32.2477 11.236C33.1837 11.236 33.8797 11.086 34.3357 10.786C34.8037 10.486 35.0377 10.09 35.0377 9.598C35.0377 9.238 34.9057 8.944 34.6417 8.716C34.3897 8.476 34.0657 8.29 33.6697 8.158C33.2737 8.026 32.7337 7.876 32.0497 7.708C31.0897 7.48 30.3097 7.252 29.7097 7.024C29.1217 6.796 28.6117 6.442 28.1797 5.962C27.7597 5.47 27.5497 4.81 27.5497 3.982C27.5497 3.286 27.7357 2.656 28.1077 2.092C28.4917 1.516 29.0617 1.06 29.8177 0.723999C30.5857 0.387999 31.5217 0.219999 32.6257 0.219999C33.3937 0.219999 34.1497 0.316 34.8937 0.508C35.6377 0.7 36.2797 0.976 36.8197 1.336L36.0817 3.154C35.5297 2.83 34.9537 2.584 34.3537 2.416C33.7537 2.248 33.1717 2.164 32.6077 2.164C31.6837 2.164 30.9937 2.32 30.5377 2.632C30.0937 2.944 29.8717 3.358 29.8717 3.874C29.8717 4.234 29.9977 4.528 30.2497 4.756C30.5137 4.984 30.8437 5.164 31.2397 5.296C31.6357 5.428 32.1757 5.578 32.8597 5.746C33.7957 5.962 34.5637 6.19 35.1637 6.43C35.7637 6.658 36.2737 7.012 36.6937 7.492C37.1257 7.972 37.3417 8.62 37.3417 9.436C37.3417 10.132 37.1497 10.762 36.7657 11.326C36.3937 11.89 35.8237 12.34 35.0557 12.676C34.2877 13.012 33.3517 13.18 32.2477 13.18ZM40.022 0.399999H42.362V13H40.022V0.399999ZM54.734 6.556H56.948V11.578C56.3 12.094 55.544 12.49 54.68 12.766C53.816 13.042 52.928 13.18 52.016 13.18C50.732 13.18 49.574 12.904 48.542 12.352C47.51 11.788 46.7 11.014 46.112 10.03C45.524 9.046 45.23 7.936 45.23 6.7C45.23 5.464 45.524 4.354 46.112 3.37C46.7 2.386 47.51 1.618 48.542 1.066C49.586 0.501999 50.756 0.219999 52.052 0.219999C53.108 0.219999 54.068 0.393999 54.932 0.741999C55.796 1.09 56.522 1.6 57.11 2.272L55.634 3.712C54.674 2.752 53.516 2.272 52.16 2.272C51.272 2.272 50.48 2.458 49.784 2.83C49.1 3.202 48.56 3.724 48.164 4.396C47.78 5.068 47.588 5.836 47.588 6.7C47.588 7.54 47.78 8.296 48.164 8.968C48.56 9.64 49.1 10.168 49.784 10.552C50.48 10.936 51.266 11.128 52.142 11.128C53.126 11.128 53.99 10.912 54.734 10.48V6.556ZM71.5903 0.399999V13H69.6643L62.7163 4.468V13H60.3943V0.399999H62.3203L69.2683 8.932V0.399999H71.5903ZM75.8306 13.126C75.4226 13.126 75.0746 12.988 74.7866 12.712C74.4986 12.424 74.3546 12.064 74.3546 11.632C74.3546 11.188 74.4926 10.828 74.7686 10.552C75.0566 10.276 75.4106 10.138 75.8306 10.138C76.2506 10.138 76.5986 10.276 76.8746 10.552C77.1626 10.828 77.3066 11.188 77.3066 11.632C77.3066 12.064 77.1626 12.424 76.8746 12.712C76.5866 12.988 76.2386 13.126 75.8306 13.126ZM85.2651 0.399999C86.3571 0.399999 87.3051 0.579999 88.1091 0.94C88.9251 1.3 89.5491 1.816 89.9811 2.488C90.4131 3.16 90.6291 3.958 90.6291 4.882C90.6291 5.794 90.4131 6.592 89.9811 7.276C89.5491 7.948 88.9251 8.464 88.1091 8.824C87.3051 9.184 86.3571 9.364 85.2651 9.364H82.4211V13H80.0811V0.399999H85.2651ZM85.1571 7.384C86.1771 7.384 86.9511 7.168 87.4791 6.736C88.0071 6.304 88.2711 5.686 88.2711 4.882C88.2711 4.078 88.0071 3.46 87.4791 3.028C86.9511 2.596 86.1771 2.38 85.1571 2.38H82.4211V7.384H85.1571ZM101.57 13L98.9959 9.31C98.8879 9.322 98.7259 9.328 98.5099 9.328H95.6659V13H93.3259V0.399999H98.5099C99.6019 0.399999 100.55 0.579999 101.354 0.94C102.17 1.3 102.794 1.816 103.226 2.488C103.658 3.16 103.874 3.958 103.874 4.882C103.874 5.83 103.64 6.646 103.172 7.33C102.716 8.014 102.056 8.524 101.192 8.86L104.09 13H101.57ZM101.516 4.882C101.516 4.078 101.252 3.46 100.724 3.028C100.196 2.596 99.4219 2.38 98.4019 2.38H95.6659V7.402H98.4019C99.4219 7.402 100.196 7.186 100.724 6.754C101.252 6.31 101.516 5.686 101.516 4.882ZM112.738 13.18C111.454 13.18 110.296 12.904 109.264 12.352C108.232 11.788 107.422 11.014 106.834 10.03C106.246 9.034 105.952 7.924 105.952 6.7C105.952 5.476 106.246 4.372 106.834 3.388C107.422 2.392 108.232 1.618 109.264 1.066C110.296 0.501999 111.454 0.219999 112.738 0.219999C114.022 0.219999 115.18 0.501999 116.212 1.066C117.244 1.618 118.054 2.386 118.642 3.37C119.23 4.354 119.524 5.464 119.524 6.7C119.524 7.936 119.23 9.046 118.642 10.03C118.054 11.014 117.244 11.788 116.212 12.352C115.18 12.904 114.022 13.18 112.738 13.18ZM112.738 11.128C113.578 11.128 114.334 10.942 115.006 10.57C115.678 10.186 116.206 9.658 116.59 8.986C116.974 8.302 117.166 7.54 117.166 6.7C117.166 5.86 116.974 5.104 116.59 4.432C116.206 3.748 115.678 3.22 115.006 2.848C114.334 2.464 113.578 2.272 112.738 2.272C111.898 2.272 111.142 2.464 110.47 2.848C109.798 3.22 109.27 3.748 108.886 4.432C108.502 5.104 108.31 5.86 108.31 6.7C108.31 7.54 108.502 8.302 108.886 8.986C109.27 9.658 109.798 10.186 110.47 10.57C111.142 10.942 111.898 11.128 112.738 11.128Z" fill="#fff"/>
</svg>
